<svg width="900" height="845" viewBox="0 0 900 845" fill="none" xmlns="http://www.w3.org/2000/svg">
<path d="M4.89282 521.082C26.9982 403.162 133.04 300.297 258.07 290.462C326.208 285.176 394.696 305.682 462.554 297.855C520.065 290.999 572.986 264.358 611.405 222.921C667.457 162.038 686.409 81.9082 745.754 23.9688C827.519 -55.9487 970.205 -57.1864 1069.7 1.58928C1169.19 60.365 1229.34 159.964 1256.87 268.517L1257.96 301.534C1263.95 414.135 1232.91 545.167 1164.49 645.524C1095.17 747.219 1049.59 789.369 923.262 862.329C815.993 924.416 605.94 951.713 480.525 954.59C355.11 957.467 226.296 921.807 131.954 842.793C37.6127 763.778 -17.2476 639.001 4.89282 521.082Z" fill="#CCE9DA"/>
<path d="M413.64 193.407C410.096 170.068 427.014 148.402 451.429 145.014C475.843 141.626 498.508 157.799 502.053 181.137C505.597 204.476 488.678 226.142 464.264 229.53C439.849 232.918 417.184 216.745 413.64 193.407Z" fill="#CCE9DA"/>
<path fill-rule="evenodd" clip-rule="evenodd" d="M744.681 253.332C745.233 251.206 746.08 249.159 747.199 247.247L743.718 242.172L751.028 234.957L756.446 238.104C758.413 236.978 760.528 236.106 762.735 235.511L764.034 229.571L774.534 229.404L776.043 235.3C778.268 235.83 780.41 236.638 782.412 237.705L787.726 234.38L795.268 241.351L791.973 246.538C793.159 248.411 794.076 250.427 794.699 252.534L800.918 253.786L801.08 263.761L794.92 265.19C794.369 267.317 793.523 269.363 792.402 271.275L795.883 276.35L788.573 283.565L783.155 280.418C781.188 281.547 779.074 282.423 776.866 283.022L775.613 289.018L765.171 289.184L763.663 283.288C761.436 282.764 759.294 281.955 757.293 280.883L751.979 284.208L744.438 277.226L747.733 272.039C746.546 270.167 745.629 268.15 745.006 266.044L738.799 264.802L738.625 254.761L744.786 253.332H744.681ZM758.535 259.017C758.572 261.145 759.268 263.215 760.537 264.965C761.805 266.714 763.588 268.065 765.66 268.847C767.733 269.629 770.001 269.806 772.179 269.357C774.357 268.907 776.346 267.851 777.895 266.321C779.445 264.792 780.484 262.858 780.883 260.764C781.282 258.67 781.021 256.51 780.135 254.558C779.249 252.605 777.776 250.947 775.904 249.794C774.031 248.641 771.843 248.044 769.615 248.079C768.135 248.1 766.674 248.401 765.316 248.962C763.957 249.524 762.728 250.336 761.699 251.352C760.67 252.368 759.861 253.568 759.318 254.884C758.775 256.199 758.508 257.604 758.535 259.017Z" fill="#EBEBEB"/>
</svg>
