<svg width="287" height="267" viewBox="0 0 287 267" fill="none" xmlns="http://www.w3.org/2000/svg">
<path d="M0 265.566C91.9362 265.15 195.064 265.15 287 265.566C195.064 265.99 91.9362 265.983 0 265.566Z" fill="#263238"/>
<path d="M108.321 108.063C111.324 111.737 114.737 115.054 118.496 117.95C114.485 105.791 120.802 81.7106 120.819 85.3481C120.895 102.73 127.322 123.173 131.087 124.936C131.087 124.936 131.087 124.936 131.155 124.936C141.491 128.667 151.784 127.921 160.831 125.191C160.831 125.191 160.831 125.191 160.831 125.131C155.294 111.158 161.068 86.5352 161.289 88.1631C163.773 105.596 174.168 117.755 176.331 118.204C186.014 112.311 191.932 105.613 190.957 104.587C183.902 97.1254 180.036 81.0323 177.051 64.2609C174.084 47.7269 174.075 32.6174 168.199 17.1433C162.807 2.98343 147.129 -2.92641 136.573 1.38091C108.838 12.7088 104.073 102.917 108.321 108.063Z" fill="#263238"/>
<path d="M138.427 0.759766C136.123 1.36114 133.977 2.45457 132.136 3.96481C130.261 5.43203 128.524 7.06672 126.946 8.84869C123.879 12.4836 121.208 16.4344 118.976 20.6345C114.372 28.9693 111.345 38.0842 109.132 47.2923C107.057 56.547 105.775 65.9616 105.3 75.434C105.147 77.7997 105.13 80.1653 105.045 82.5309L105.003 89.6278L105.24 96.7077L105.681 103.779V96.6993L105.808 89.6278L106.071 82.5648C106.232 80.2162 106.317 77.859 106.538 75.5188C107.202 66.1355 108.591 56.8176 110.692 47.6484C112.689 38.4714 115.822 29.5791 120.019 21.1771C122.112 16.9761 124.626 12.9988 127.523 9.30657C128.99 7.46601 130.622 5.76315 132.398 4.21919C133.297 3.46732 134.249 2.78155 135.247 2.16726C136.231 1.54269 137.303 1.06831 138.427 0.759766Z" fill="#263238"/>
<path d="M192.486 102.328C190.653 98.6741 189.006 94.9301 187.552 91.1099C186.042 87.3114 184.677 83.4789 183.499 79.5616C182.32 75.6443 181.26 71.727 180.446 67.7504C179.632 63.7738 178.954 59.7123 178.208 55.6933C176.622 47.6552 175.045 39.5833 172.993 31.6554C171.942 27.6873 170.823 23.7361 169.441 19.8612C168.744 17.9245 167.94 16.0279 167.033 14.1803C166.199 12.2925 164.984 10.5978 163.463 9.20312C164.845 10.7023 165.927 12.4522 166.651 14.3583C167.44 16.2366 168.127 18.1555 168.711 20.1071C169.932 23.9989 170.916 27.9671 171.815 31.9776C173.612 39.9479 175.206 47.969 176.656 56.0155C177.453 60.0345 178.174 64.0451 179.047 68.0811C179.916 72.0983 181.018 76.0618 182.346 79.9516C184.935 87.7438 188.334 95.2434 192.486 102.328Z" fill="#263238"/>
<path d="M211.156 266.293H144.816C144.251 264.083 143.686 261.867 143.121 259.645C142.753 258.187 142.383 256.731 142.01 255.279C142.01 255.185 141.968 255.1 141.942 255.007L140.492 249.309C140.441 249.123 140.39 248.936 140.348 248.75C139.983 247.3 139.61 245.85 139.254 244.417C138.327 240.816 137.417 237.252 136.524 233.725C136.185 232.385 135.846 231.037 135.498 229.714C135.489 229.651 135.475 229.589 135.456 229.528C135.244 228.68 135.023 227.832 134.811 226.984C133.429 221.575 132.098 216.326 130.826 211.307C130.674 210.713 130.521 210.145 130.368 209.568C129.249 205.151 128.181 200.945 127.172 196.994L126.748 195.298C126.502 194.323 126.265 193.374 126.019 192.441C125.798 191.593 125.586 190.762 125.383 189.948C124.772 187.549 124.187 185.293 123.687 183.165C123.602 182.817 123.509 182.487 123.433 182.156C122.669 179.197 122 176.543 121.415 174.254C121.304 173.847 121.211 173.457 121.109 173.075C120.897 172.227 120.694 171.447 120.516 170.726C120.423 170.362 120.338 170.014 120.244 169.683L118.998 164.791H182.2C182.2 164.791 197.284 216.784 211.156 266.293Z" fill="#37474F"/>
<path d="M155.317 266.285H153.452C152.321 261.836 151.213 257.387 150.128 252.939L148.856 247.851C147.906 244.013 146.951 240.164 145.99 236.303C145.99 236.133 145.914 235.955 145.871 235.786C141.327 217.378 136.867 198.928 132.831 180.401C132.78 180.181 132.729 179.96 132.687 179.74C132.687 179.715 132.696 179.691 132.714 179.674C132.731 179.656 132.755 179.646 132.78 179.646C132.805 179.646 132.828 179.656 132.846 179.674C132.863 179.691 132.873 179.715 132.873 179.74L132.932 179.96C138.02 198.114 142.777 216.42 147.347 234.717C147.44 235.031 147.516 235.353 147.593 235.667C147.974 237.176 148.347 238.669 148.729 240.169C149.254 242.298 149.797 244.409 150.331 246.554C152.016 253.117 153.678 259.694 155.317 266.285Z" fill="#263238"/>
<path d="M180.148 164.828L171.169 209.766L170.762 211.776L170.126 214.972L169.109 220.06L168.168 224.799V225.011L167.99 225.859L159.943 266.185H144.816C144.251 263.975 143.686 261.759 143.121 259.538C142.753 258.079 142.383 256.624 142.01 255.171C142.01 255.078 141.968 254.993 141.942 254.9C141.45 253.001 140.976 251.101 140.492 249.202C140.441 249.015 140.39 248.829 140.348 248.642C139.983 247.192 139.61 245.743 139.254 244.31C138.327 240.709 137.417 237.145 136.524 233.618C136.185 232.278 135.846 230.93 135.498 229.607C135.489 229.544 135.475 229.481 135.456 229.421C135.244 228.573 135.023 227.725 134.811 226.877C133.429 221.467 132.098 216.219 130.826 211.199L130.368 209.461C129.249 205.043 128.181 200.838 127.172 196.887C127.028 196.319 126.892 195.759 126.748 195.191C126.502 194.216 126.265 193.266 126.019 192.333C125.798 191.486 125.586 190.655 125.383 189.841C124.772 187.441 124.187 185.186 123.687 183.058C123.602 182.71 123.509 182.379 123.433 182.049C122.669 179.089 122 176.435 121.415 174.146C121.304 173.739 121.211 173.349 121.109 172.968C120.897 172.12 120.694 171.34 120.516 170.619C120.423 170.254 120.338 169.907 120.244 169.576L118.998 164.684L180.148 164.828Z" fill="#263238"/>
<path d="M180.171 164.801C180.171 165.157 179.908 168.905 179.323 174.628C178.116 186.667 176.133 198.616 173.388 210.401C172.692 213.275 171.929 216.115 171.098 218.88C170.539 220.796 169.928 222.695 169.275 224.493L169.224 224.654L168.122 225.069C162.161 227.531 156.398 230.448 150.884 233.794C150.884 233.794 150.884 233.921 150.884 234.15C150.842 235.405 150.664 239.907 150.41 246.504C150.325 248.471 150.249 250.625 150.155 252.931C150.003 256.959 149.825 261.469 149.647 266.277H86.1221C86.97 255.602 87.767 244.766 88.581 234.26C88.581 234.26 82.6457 217.633 83.2901 209.231C84.8927 188.881 94.016 164.809 94.016 164.809L180.171 164.801Z" fill="#37474F"/>
<path d="M158.487 209.469L158.563 204.382C158.614 201.278 158.826 198.175 158.945 195.055C159.216 188.026 159.53 180.971 160.123 173.959C160.123 173.79 160.42 173.79 160.428 173.959C160.53 176.749 160.589 179.53 160.581 182.319C160.572 185.109 160.666 187.899 160.657 190.68C160.657 196.208 160.657 201.702 160.428 207.265C160.352 209.393 159.58 213.302 162.65 213.539C165.092 213.726 166.508 211.156 166.94 209.113C167.34 206.564 167.533 203.986 167.517 201.406C167.624 198.579 167.684 195.773 167.695 192.986C167.695 186.873 167.839 180.776 168 174.671C168 174.493 168.28 174.51 168.305 174.671C169.007 180.829 169.401 187.018 169.484 193.215C169.484 196.183 169.484 199.15 169.357 202.126C169.263 204.899 169.314 207.858 168.458 210.529C167.788 212.623 166.27 214.633 164.049 215.184C164.004 215.18 163.958 215.18 163.913 215.184C163.943 215.2 163.969 215.223 163.988 215.251C164.007 215.279 164.019 215.311 164.023 215.345C164.117 216.32 164.278 217.295 164.303 218.279C164.329 219.262 164.303 220.237 164.218 221.204C164.176 222.198 164.057 223.187 163.862 224.163C163.776 224.631 163.66 225.093 163.515 225.545C163.362 226.02 163.108 226.393 162.913 226.859C162.896 226.895 162.868 226.924 162.834 226.943C162.799 226.961 162.759 226.967 162.72 226.96C162.682 226.954 162.646 226.934 162.62 226.905C162.593 226.876 162.577 226.839 162.574 226.8C162.574 226.639 162.574 226.478 162.523 226.325C162.527 226.297 162.527 226.269 162.523 226.241C162.486 225.959 162.467 225.676 162.463 225.393C162.463 224.918 162.514 224.443 162.548 223.968C162.624 223.019 162.752 222.06 162.879 221.119C163.006 220.178 163.074 219.22 163.184 218.27C163.294 217.321 163.481 216.329 163.566 215.345C163.575 215.308 163.596 215.276 163.625 215.252C162.75 215.415 161.845 215.306 161.034 214.939C160.223 214.572 159.544 213.965 159.089 213.2C158.573 212.028 158.366 210.744 158.487 209.469Z" fill="#263238"/>
<path d="M145.475 236.099C147.469 234.574 149.568 233.191 151.758 231.962C154.061 230.567 156.455 229.326 158.922 228.248C163.755 226.154 168.741 224.721 173.727 223.067C173.871 223.016 173.973 223.271 173.828 223.322C168.995 225.246 164.366 227.798 159.702 230.105C157.405 231.232 155.081 232.301 152.741 233.335C150.401 234.37 148.061 235.574 145.661 236.456C145.475 236.498 145.331 236.218 145.475 236.099Z" fill="#263238"/>
<path d="M107.765 193.999C111.157 193.999 121.204 194.126 126.419 189.243C128.623 187.174 129.81 184.155 130.769 181.399C131.861 178.288 132.745 175.107 133.414 171.878C133.414 171.717 133.677 171.776 133.685 171.92C133.761 175.582 133.29 179.234 132.286 182.756C131.438 185.732 130.362 189.064 127.953 191.159C125.545 193.253 121.967 194.135 118.72 194.55C115.074 194.974 111.389 194.923 107.757 194.398C107.704 194.397 107.654 194.375 107.617 194.336C107.58 194.298 107.56 194.247 107.562 194.194C107.563 194.141 107.585 194.091 107.623 194.055C107.661 194.018 107.712 193.998 107.765 193.999Z" fill="#263238"/>
<path d="M189.17 193.521C187.644 193.622 183.125 194.097 180.42 189.417C179.276 187.424 178.521 184.457 177.876 181.743C177.139 178.674 176.528 175.537 175.969 172.332C175.969 172.179 175.842 172.239 175.85 172.383C176.087 175.992 176.566 179.581 177.283 183.126C177.876 186.068 178.631 189.349 179.869 191.359C180.332 192.163 180.969 192.854 181.734 193.38C182.498 193.907 183.37 194.256 184.287 194.403C185.944 194.707 187.655 194.528 189.213 193.885C189.306 193.843 189.281 193.512 189.17 193.521Z" fill="#263238"/>
<path d="M103.189 170.169C103.104 170.483 94.8369 201.643 95.2184 209.172C95.6 216.701 100.018 231.938 100.034 232.065C100.051 232.193 99.2459 245.538 98.0504 266.27H96.4394L98.415 232.252C98.2284 231.124 93.972 216.651 93.5989 209.274C93.1919 201.456 101.23 171.017 101.612 169.728C101.706 169.569 101.849 169.446 102.019 169.376C102.19 169.306 102.379 169.294 102.557 169.34C102.735 169.387 102.893 169.491 103.007 169.636C103.121 169.781 103.185 169.959 103.189 170.143V170.169Z" fill="#263238"/>
<path d="M159.496 74.5414C192.081 103.26 222.351 134.742 224.869 150.996C228.363 173.465 214.593 179.867 208.395 179.994C191.504 180.35 160.064 112.256 149.093 86.2424C138.452 60.992 152.34 68.2754 159.496 74.5414Z" fill="#009247"/>
<path d="M181.817 164.805L177.272 136.248C177.272 136.248 188.583 124.547 182.732 112.286C179.782 106.071 159.695 75.8268 148.969 68.1958C138.905 61.0565 126.975 66.9833 122.506 74.7076C111.229 94.2008 100.52 116.619 94 164.831L181.817 164.805Z" fill="#009247"/>
<path d="M163.887 132.544C159.309 133.04 154.774 133.876 150.321 135.046C148.116 135.656 145.962 136.368 143.809 137.123C142.74 137.496 141.655 137.835 140.57 138.174C139.445 138.556 138.277 138.801 137.093 138.903C137.077 138.909 137.062 138.92 137.051 138.934C137.041 138.949 137.035 138.966 137.035 138.984C137.035 139.002 137.041 139.019 137.051 139.034C137.062 139.048 137.077 139.059 137.093 139.065C138.226 139.1 139.359 139.057 140.485 138.937C141.565 138.787 142.633 138.563 143.682 138.268C145.92 137.666 148.125 136.97 150.363 136.351C154.857 135.096 159.359 133.808 163.929 132.917C164.167 132.875 164.099 132.519 163.887 132.544Z" fill="#263238"/>
<path d="M175.265 136.384C171.493 136.065 167.705 135.958 163.92 136.062C162.021 136.121 160.147 136.291 158.265 136.512C157.366 136.622 156.467 136.74 155.569 136.876C154.67 137.012 153.618 137.3 152.635 137.427C152.533 137.427 152.533 137.605 152.635 137.588C153.568 137.495 154.517 137.588 155.458 137.512L158.282 137.385C160.173 137.3 162.064 137.232 163.946 137.13C167.727 136.927 171.484 136.766 175.265 136.698C175.301 136.69 175.332 136.67 175.355 136.641C175.377 136.613 175.39 136.578 175.39 136.541C175.39 136.505 175.377 136.47 175.355 136.441C175.332 136.413 175.301 136.393 175.265 136.384Z" fill="#263238"/>
<path d="M121.409 71.7492C91.037 95.5751 61.208 136.757 61.0045 159.786C60.7841 182.518 68.7034 180.314 70.9503 180.136C84.6863 179.237 117.034 115.959 126.912 90.1655C136.671 64.593 128.87 65.8563 121.409 71.7492Z" fill="#009247"/>
<path d="M89.1719 162.403C90.7659 159.537 92.4024 156.705 93.9455 153.822L98.6768 145.216C101.797 139.467 104.968 133.744 108.004 127.944C111.039 122.145 114.168 116.413 117.152 110.597C118.662 107.697 120.131 104.777 121.562 101.838C123.045 98.921 124.394 95.9449 125.801 92.9688C123.636 99.1604 121.128 105.227 118.289 111.139C115.508 117.074 112.481 122.9 109.445 128.708C106.41 134.516 103.128 140.197 99.7791 145.827C96.4299 151.457 92.9535 157.044 89.1719 162.403Z" fill="#263238"/>
<path d="M122.588 100.591C123.149 99.5597 123.775 98.5657 124.462 97.6144C124.801 97.1481 125.123 96.6732 125.488 96.2239C125.852 95.7745 126.191 95.2912 126.598 94.8418C126.326 96.0091 125.819 97.1084 125.106 98.0723C124.429 99.0593 123.575 99.913 122.588 100.591Z" fill="#263238"/>
<path d="M215.378 117.727C213.784 107.052 210.595 92.1715 206.746 89.0936C202.693 85.8631 188.016 75.0609 183.793 73.6534C179.571 72.2459 160.748 65.3186 157.322 67.3451C154.583 68.973 157.933 76.1886 166.895 79.5633C174.763 82.5309 178.833 85.329 181.089 86.2786C183.344 87.2282 188.966 94.5795 187.499 97.8778C186.651 99.8195 181.046 102.117 177.536 100.6C174.026 99.0818 173.084 92.1206 169.057 88.9325C165.029 85.7444 157.992 86.1938 157.602 88.0846C157.212 89.9754 159.552 90.8488 163.223 97.2758C165.589 101.405 165.852 111.376 171.185 118.473C173.865 122.034 178.579 131.548 178.579 131.548L215.378 117.727Z" fill="#F3A398"/>
<path d="M165.291 86.0248C164.003 85.8468 162.79 85.3123 161.789 84.4816C161.472 84.1945 161.229 83.8346 161.081 83.4329C160.934 83.0312 160.886 82.5997 160.941 82.1753C160.948 81.8625 161.065 81.5621 161.272 81.3275C161.34 81.2766 161.272 81.1918 161.204 81.2596C161.107 81.4112 161 81.5557 160.882 81.6921C160.804 81.8179 160.738 81.9514 160.687 82.0906C160.591 82.3626 160.545 82.6499 160.551 82.9385C160.579 83.5934 160.83 84.219 161.264 84.7106C161.78 85.2405 162.413 85.6428 163.112 85.8856C163.811 86.1285 164.557 86.2052 165.291 86.1096C165.35 86.1265 165.35 86.0333 165.291 86.0248Z" fill="#263238"/>
<path d="M206.741 89.0985C203.282 83.7991 194.489 74.2772 185.841 71.0637C179.999 68.8846 160.065 78.8559 160.692 82.6799C161.32 86.5039 164.737 86.4785 169.799 85.8171C171.639 85.5797 181.364 81.9761 183.051 84.0026C185.476 86.9194 188.622 96.95 188.622 96.95L206.741 89.0985Z" fill="#F3A398"/>
<path d="M161.183 81.1626C163.616 77.0334 169.026 74.7864 174.427 73.0059C174.44 73.0107 174.451 73.0194 174.459 73.0307C174.467 73.0421 174.471 73.0556 174.471 73.0694C174.471 73.0833 174.467 73.0968 174.459 73.1082C174.451 73.1196 174.44 73.1282 174.427 73.133C173.054 73.5909 164.252 77.7371 161.2 81.222C161.208 81.2644 161.158 81.1965 161.183 81.1626Z" fill="#263238"/>
<path d="M206.736 89.086C203.277 83.7866 194.484 74.2648 185.836 71.0512C179.994 68.8722 164.274 81.5228 164.901 85.3468C165.529 89.1708 170.446 89.4252 175.856 87.475C177.603 86.8476 183.487 82.642 185.132 84.6685C187.557 87.5852 193.467 94.8432 193.467 94.8432L206.736 89.086Z" fill="#F3A398"/>
<path d="M190.088 90.3334C189.528 89.4855 189.342 89.2057 188.774 88.3832C188.205 87.5607 187.62 86.7383 187.001 85.9667C186.508 85.2377 185.891 84.6007 185.178 84.0844C184.445 83.6805 183.6 83.5257 182.77 83.6435C180.888 83.8385 179.201 85.051 177.615 85.9836C175.843 87.0266 172.155 88.7224 169.323 88.451C168.542 88.4194 167.776 88.2229 167.076 87.8745C166.547 87.6369 166.084 87.2729 165.728 86.8146C164.473 84.7457 165.982 82.3462 167.534 80.6419C170.434 77.4708 174.317 75.156 178.141 73.2398C179.074 72.7734 180.015 72.324 180.964 71.8831C182.009 71.3057 183.166 70.9588 184.356 70.8656C186.323 70.8232 189.571 72.7904 190.58 73.4093C190.656 73.4517 190.715 73.3245 190.639 73.2822C189.418 72.536 186.399 70.111 183.22 70.306C182.061 70.4926 180.944 70.883 179.922 71.4592C178.819 71.9425 177.734 72.4682 176.657 73.0193C174.561 74.0799 172.548 75.2987 170.637 76.6653C168.729 77.9347 167.069 79.5408 165.736 81.405C165.18 82.236 164.859 83.2024 164.808 84.2014C164.757 85.2003 164.978 86.1943 165.448 87.0774C166.296 88.5104 168.187 88.8411 169.043 88.9343C169.873 89.0445 170.714 89.0445 171.544 88.9343C173.393 88.4959 175.209 87.9293 176.979 87.2385C178.675 86.5348 180.235 85.3562 181.999 84.8051C182.832 84.5181 183.745 84.5667 184.543 84.9407C185.27 85.4205 185.922 86.0064 186.476 86.6789C187.677 87.8317 188.767 89.095 189.732 90.4521C190.028 90.8251 190.291 90.7064 190.088 90.3334Z" fill="#263238"/>
<path d="M209.32 93.715C208.04 91.1713 205.826 80.7507 203.775 77.5626C201.723 74.3745 192.387 63.3773 188.089 63.903C182.687 64.5643 188.428 74.2558 191.302 78.2409C194.176 82.226 193.769 89.0516 193.769 89.0516L209.32 93.715Z" fill="#F3A398"/>
<path d="M187.286 71.6759C188.303 72.9308 189.21 74.3298 190.101 75.6864C191.014 76.9456 191.836 78.2689 192.56 79.6461C193.166 81.0573 193.538 82.558 193.662 84.0891C193.738 84.8437 193.772 85.5899 193.789 86.3445C193.806 87.0991 193.73 88.0403 193.789 88.8288C193.789 88.9136 193.653 88.9306 193.653 88.8288C193.534 87.3248 193.322 85.8297 193.017 84.352C192.736 82.8163 192.266 81.3212 191.618 79.9005C190.321 77.077 188.447 74.5757 187.125 71.7692C187.048 71.6165 187.209 71.5402 187.286 71.6759Z" fill="#263238"/>
<path d="M193.692 90.1934C194.065 92.7879 193.319 95.4164 192.387 97.8244C191.909 99.0405 191.343 100.219 190.691 101.352C190.028 102.47 189.291 103.544 188.486 104.565C186.936 106.512 185.637 108.645 184.62 110.916C183.659 113.25 182.987 115.693 182.619 118.191C182.402 115.597 182.69 112.985 183.467 110.5C184.311 108.015 185.57 105.69 187.189 103.624C188.73 101.657 190.066 99.5379 191.174 97.2987C192.285 95.0348 193.404 92.7455 193.692 90.1934Z" fill="#263238"/>
<path d="M206.838 179.225C196.29 177.801 189.396 160.165 177.356 129.2C175.237 123.756 202.793 90.2895 206.541 95.2836C211.264 101.575 223.982 136.602 225.313 146.157C227.95 164.947 219.149 180.887 206.838 179.225Z" fill="#F3A398"/>
<path d="M183.715 146.446L217.707 113.42C217.707 113.42 227.365 141.841 226.457 153.754C225.55 165.667 221.37 179.242 207.057 179.988C196.323 180.548 183.715 146.446 183.715 146.446Z" fill="#009247"/>
<path d="M194.712 169.307C193.483 167.568 192.389 165.745 191.32 163.914C190.252 162.082 189.269 160.209 188.31 158.318C187.352 156.427 186.471 154.485 185.69 152.51C184.855 150.551 184.194 148.522 183.715 146.447C184.614 148.372 185.563 150.254 186.521 152.137L189.379 157.784C190.303 159.683 191.244 161.574 192.126 163.49C193.008 165.406 193.915 167.331 194.712 169.307Z" fill="#263238"/>
<path d="M191.027 152.22C192.672 150.406 194.486 148.727 196.233 147.023C197.979 145.318 199.76 143.631 201.558 141.935C205.136 138.595 208.745 135.282 212.385 131.998C213.386 131.099 214.389 130.209 215.395 129.327C216.481 128.386 217.685 127.58 218.787 126.631C218.805 126.622 218.826 126.619 218.846 126.623C218.867 126.627 218.885 126.637 218.898 126.653C218.912 126.668 218.92 126.688 218.921 126.708C218.923 126.729 218.917 126.749 218.906 126.766C218.058 127.614 217.286 128.555 216.438 129.412C215.59 130.268 214.658 131.167 213.75 132.032C211.981 133.728 210.2 135.409 208.409 137.077C204.822 140.418 201.227 143.75 197.539 146.98C195.453 148.803 193.409 150.703 191.222 152.398C191.198 152.424 191.165 152.44 191.13 152.441C191.095 152.443 191.061 152.43 191.035 152.407C191.009 152.383 190.994 152.35 190.992 152.315C190.991 152.28 191.003 152.246 191.027 152.22Z" fill="#263238"/>
<path d="M130.382 69.1284C130.628 70.8242 137.793 82.7795 147.289 82.203C152.775 81.8468 149.044 70.8242 149.044 70.8242L153.818 55.7655L135.614 41.8516C135.614 41.8516 130.289 68.3907 130.382 69.1284Z" fill="#F3A398"/>
<path d="M133.663 51.7901C134.883 55.7385 136.902 59.3936 139.595 62.5283C142.287 65.663 145.596 68.2102 149.315 70.0114L153.826 55.8007L135.613 41.8867C135.613 41.8867 134.731 46.3551 133.663 51.7901Z" fill="#263238"/>
<path d="M175.277 34.6548C175.819 60.5156 160.388 63.7631 154.808 63.8733C149.721 63.975 132.492 63.6698 129.278 37.9955C126.065 12.3212 137.927 3.89308 149.492 3.05366C161.057 2.21424 174.742 8.78545 175.277 34.6548Z" fill="#F3A398"/>
<path d="M169.231 32.5782C168.658 32.4433 168.092 32.2791 167.535 32.0865C166.891 32.0012 166.294 31.7027 165.839 31.2386C165.727 31.069 165.675 30.8671 165.69 30.6644C165.705 30.4618 165.788 30.27 165.924 30.1193C166.238 29.8618 166.614 29.6924 167.015 29.6283C167.416 29.5642 167.827 29.6079 168.205 29.7548C169.02 29.9377 169.738 30.4147 170.223 31.0944C170.321 31.2546 170.37 31.4394 170.367 31.627C170.363 31.8146 170.305 31.9972 170.201 32.1532C170.097 32.3092 169.95 32.4321 169.778 32.5074C169.606 32.5827 169.416 32.6073 169.231 32.5782Z" fill="#263238"/>
<path d="M151.485 31.8165C152.079 31.7685 152.671 31.6864 153.257 31.5706C153.893 31.5782 154.514 31.3722 155.02 30.9856C155.157 30.8349 155.239 30.6431 155.254 30.4405C155.27 30.2379 155.217 30.0359 155.105 29.8664C154.834 29.5631 154.486 29.3385 154.098 29.2162C153.71 29.0938 153.297 29.0782 152.9 29.1711C152.067 29.2224 151.285 29.5893 150.713 30.197C150.59 30.3416 150.512 30.5184 150.488 30.7063C150.463 30.8942 150.494 31.0852 150.575 31.2563C150.657 31.4273 150.786 31.5712 150.947 31.6706C151.108 31.77 151.295 31.8207 151.485 31.8165Z" fill="#263238"/>
<path d="M154.707 38.6055C154.707 38.5377 154.572 38.6819 154.563 38.7582C154.563 40.5133 154.199 42.5313 152.579 42.9976C152.528 42.9976 152.528 43.0994 152.579 43.0994C154.546 42.9383 154.962 40.3013 154.707 38.6055Z" fill="#263238"/>
<path d="M153.226 36.6692C150.411 36.3046 149.894 41.977 152.506 42.3077C155.117 42.6384 155.592 36.9659 153.226 36.6692Z" fill="#263238"/>
<path d="M152.085 36.9133C151.559 37.1931 151.025 37.7104 150.389 37.7612C149.753 37.8121 149.219 37.1253 148.821 36.5148C148.778 36.4555 148.727 36.5148 148.719 36.5742C148.609 37.6595 148.922 38.8041 150.076 39.0755C151.229 39.3468 151.966 38.4226 152.339 37.3797C152.441 37.0744 152.297 36.7607 152.085 36.9133Z" fill="#263238"/>
<path d="M165.338 38.7657C165.338 38.6979 165.465 38.8675 165.457 38.9353C165.228 40.682 165.262 42.7254 166.797 43.4631C166.839 43.4631 166.797 43.5733 166.797 43.5563C164.855 43.0985 164.838 40.3852 165.338 38.7657Z" fill="#263238"/>
<path d="M167.072 37.0687C169.913 37.1365 169.616 42.809 166.945 42.7581C164.274 42.7072 164.69 37.0178 167.072 37.0687Z" fill="#263238"/>
<path d="M168.248 37.537C168.681 37.8592 169.096 38.4357 169.622 38.5036C170.148 38.5714 170.741 37.9863 171.174 37.4267C171.216 37.3674 171.258 37.4267 171.258 37.4946C171.258 38.5799 170.792 39.6906 169.741 39.8347C168.689 39.9789 168.13 38.9868 167.935 37.9015C167.901 37.698 168.045 37.4013 168.248 37.537Z" fill="#263238"/>
<path d="M154.671 52.1266C155.035 52.593 155.374 53.2119 156.002 53.3476C156.652 53.4243 157.31 53.3636 157.935 53.1695C157.994 53.1695 158.045 53.2204 158.003 53.2628C157.706 53.573 157.332 53.7975 156.918 53.9124C156.505 54.0273 156.068 54.0284 155.654 53.9157C155.307 53.7759 155.01 53.5358 154.8 53.2262C154.59 52.9167 154.477 52.5515 154.476 52.1775C154.476 52.0758 154.62 52.0588 154.671 52.1266Z" fill="#263238"/>
<path d="M162.523 46.341C162.523 46.341 162.684 48.9864 162.583 50.2243C162.583 50.343 162.269 50.377 161.854 50.3685H161.803C160.725 50.4754 159.639 50.2854 158.661 49.8191C157.684 49.3528 156.852 48.6279 156.257 47.723C156.181 47.5958 156.351 47.4772 156.452 47.5619C157.948 48.7643 159.792 49.4513 161.709 49.5206C161.82 49.1899 161.285 44.9928 161.489 44.9928C162.442 45.1492 163.369 45.4345 164.245 45.8407C164.084 40.3039 163.024 34.8181 162.947 29.3322C162.939 29.2894 162.949 29.2453 162.974 29.2096C162.998 29.1738 163.036 29.1493 163.079 29.1414C163.121 29.1335 163.166 29.1429 163.201 29.1676C163.237 29.1922 163.262 29.2301 163.27 29.2728C164.779 34.9198 165.109 41.2875 165.432 46.9938C165.508 47.7146 163.007 46.5869 162.523 46.341Z" fill="#263238"/>
<path d="M129.889 37.4186C136.257 38.2665 141.386 19.121 141.988 16.7639C141.692 18.2731 140.114 26.2433 140.666 26.6673C141.345 26.7832 142.038 26.7832 142.717 26.6673C142.884 25.7096 143.122 24.7658 143.43 23.8438C143.557 23.4114 143.43 24.8358 143.43 26.6079C143.803 26.6079 144.21 26.5147 144.651 26.4808C144.929 24.4217 145.479 22.4087 146.287 20.4946C146.601 19.7739 146.228 23.2079 146.448 26.3027C151.01 25.8618 157.581 25.387 163.508 26.184C165.102 26.396 166.459 26.6419 167.654 26.9047C168.061 24.5476 168.214 21.9784 168.299 22.555C168.529 24.061 168.611 25.5861 168.544 27.1082C169.189 27.2608 169.782 27.405 170.317 27.5491C171.046 24.2423 170.359 18.6377 170.757 19.545C171.918 22.3279 172.539 25.3059 172.589 28.3207C174.793 29.1686 175.345 29.6943 175.514 29.1177C175.802 28.0663 176.082 18.5021 169.96 10.4131C163.313 1.62891 147.847 -2.91582 137.011 7.02153C137.011 7.02153 128.871 10.5657 126.412 18.0442C123.954 25.5226 126.2 36.9184 129.889 37.4186Z" fill="#263238"/>
<path d="M133.678 38.1372C133.678 38.1372 128.591 29.7091 124.784 31.4812C120.977 33.2533 124.462 45.2086 128.65 47.0909C129.171 47.3687 129.743 47.5382 130.331 47.5892C130.919 47.6403 131.511 47.5719 132.072 47.3881C132.632 47.2044 133.15 46.909 133.594 46.5199C134.038 46.1308 134.398 45.6559 134.653 45.1238L133.678 38.1372Z" fill="#F3A398"/>
<path d="M125.853 34.8809C125.842 34.8853 125.832 34.8929 125.826 34.9027C125.819 34.9125 125.815 34.9241 125.815 34.936C125.815 34.9478 125.819 34.9594 125.826 34.9693C125.832 34.9791 125.842 34.9867 125.853 34.9911C128.786 36.4156 130.186 39.3069 131.11 42.2745C130.262 41.1044 129.109 40.4091 127.549 41.3758C127.464 41.4266 127.549 41.5538 127.616 41.5453C128.156 41.4113 128.723 41.4478 129.241 41.6497C129.759 41.8517 130.202 42.2092 130.508 42.673C131.014 43.4551 131.437 44.2877 131.771 45.1574C131.89 45.4372 132.39 45.3269 132.305 45.0132C132.301 44.9879 132.301 44.9622 132.305 44.9369C132.577 41.1468 129.948 35.5422 125.853 34.8809Z" fill="#263238"/>
<path d="M156.095 81.2853L141.749 125.647C141.18 126.936 141.749 128.055 143.08 128.14L166.355 129.666C167.069 129.659 167.766 129.45 168.367 129.063C168.967 128.676 169.445 128.126 169.746 127.479L184.067 83.1168C184.635 81.8195 184.067 80.7003 182.744 80.5731L159.47 79.0469C158.753 79.0607 158.054 79.2786 157.457 79.675C156.859 80.0715 156.387 80.6301 156.095 81.2853Z" fill="#37474F"/>
<path d="M158.862 81.4317L144.542 125.794C143.973 127.091 144.542 128.21 145.873 128.295L169.147 129.821C169.862 129.814 170.559 129.605 171.16 129.218C171.76 128.831 172.238 128.281 172.539 127.634L186.86 83.2632C187.428 81.9744 186.86 80.8551 185.537 80.7704L162.263 79.2441C161.546 79.2476 160.846 79.4553 160.244 79.8428C159.642 80.2303 159.162 80.7815 158.862 81.4317Z" fill="#455A64"/>
<path d="M165.117 83.9104C165.084 84.3015 164.935 84.6739 164.69 84.9805C164.445 85.2872 164.115 85.5142 163.741 85.633C163.367 85.7517 162.966 85.7569 162.589 85.6477C162.212 85.5385 161.875 85.32 161.623 85.0197C161.37 84.7195 161.212 84.351 161.168 83.9608C161.125 83.5707 161.198 83.1765 161.379 82.8281C161.56 82.4797 161.84 82.1927 162.184 82.0035C162.528 81.8143 162.92 81.7314 163.311 81.7652C163.835 81.8105 164.319 82.0618 164.658 82.4641C164.997 82.8663 165.162 83.3865 165.117 83.9104Z" fill="#263238"/>
<path d="M67.7966 180.125C77.9714 181.524 90.6305 173.63 123.486 149.643C128.031 146.327 113.235 107.943 108.224 111.233C101.882 115.388 78.1579 132.863 76.5893 134.364C63.2943 146.989 60.9032 179.175 67.7966 180.125Z" fill="#F3A398"/>
<path d="M96.4688 122.834C96.4688 122.834 105.796 109.709 112.876 104.333C122.321 97.1346 133.437 94.8029 138.151 94.1076C147.995 92.6577 172.805 95.9645 173.102 103.273C173.373 109.895 148.182 105.24 148.182 105.24C148.182 105.24 174.645 105.749 173.509 113.779C172.372 121.808 143.459 114.737 143.459 114.737C143.459 114.737 170.643 115.865 168.158 123.962C166.276 130.075 139.711 125.149 139.711 125.149C139.711 125.149 163.063 126.285 161.401 132.661C159.561 139.699 134.76 136.689 134.76 136.689C127.807 152.18 117.802 156.538 110.586 158.946C108.797 159.531 96.4688 122.834 96.4688 122.834Z" fill="#F3A398"/>
<path d="M139.03 104.482C142.142 104.423 145.288 104.355 148.357 104.576C151.426 104.796 154.564 105.135 157.633 105.644C161.659 106.236 165.605 107.286 169.393 108.773C162.474 106.628 151.376 105.652 148.272 105.424C145.169 105.195 142.083 104.821 138.945 104.576C138.937 104.593 138.954 104.482 139.03 104.482Z" fill="#263238"/>
<path d="M138.013 115.68C141.99 115.79 145.941 115.747 149.883 116.027C153.826 116.307 157.557 116.918 161.483 117.469C161.779 117.511 161.661 117.655 161.356 117.621C157.413 117.231 153.724 117.172 149.79 116.824C145.856 116.477 141.913 115.976 137.971 115.773C137.945 115.773 137.954 115.68 138.013 115.68Z" fill="#263238"/>
<path d="M135.433 125.08C141.521 124.927 147.617 125.928 153.586 126.996C153.883 127.056 153.705 127.225 153.4 127.191C147.371 126.437 142.657 125.809 135.441 125.292C135.323 125.317 135.306 125.08 135.433 125.08Z" fill="#263238"/>
<path d="M96.4519 117.615L109.399 164.792C109.399 164.792 74.6355 185.235 67.0044 179.834C59.3734 174.433 64.3421 147.181 73.0669 136.795C76.645 132.462 96.4519 117.615 96.4519 117.615Z" fill="#009247"/>
<path d="M96.8943 119.168L96.3855 117.617L96.5127 117.668C93.2314 120.347 89.9415 123.001 86.6941 125.706C83.4466 128.41 80.1907 131.107 77.1044 133.964C75.5404 135.349 74.0676 136.833 72.6953 138.407C71.3822 140.028 70.2107 141.758 69.1935 143.579C67.1764 147.289 65.7626 151.296 65.0049 155.45C65.3395 151.184 66.4909 147.021 68.3965 143.189C69.3539 141.263 70.5136 139.444 71.8559 137.763C73.2366 136.121 74.7236 134.572 76.3073 133.125C79.453 130.267 82.7514 127.588 86.0921 124.985C89.4328 122.382 92.8752 119.898 96.4195 117.566L96.5212 117.498V117.608L96.8943 119.168Z" fill="#263238"/>
<path d="M88.8581 129.346C89.6467 131.661 90.2487 134.052 90.9015 136.409C91.5544 138.766 92.1903 141.14 92.7924 143.523C93.9964 148.271 95.1749 153.028 96.2857 157.801C96.5909 159.107 96.8962 160.413 97.1336 161.727C97.371 163.041 97.566 164.567 97.8797 165.966C97.8825 165.978 97.8831 165.989 97.8814 166C97.8797 166.012 97.8758 166.023 97.8699 166.033C97.858 166.052 97.8386 166.067 97.8161 166.072C97.7937 166.078 97.7699 166.074 97.75 166.063C97.7301 166.051 97.7158 166.031 97.7102 166.009C97.3964 164.847 96.9131 163.728 96.574 162.566C96.2348 161.405 95.8872 160.167 95.5735 158.954C94.946 156.586 94.3299 154.215 93.725 151.84C92.5125 147.092 91.3255 142.336 90.2741 137.545C89.6806 134.849 89.0023 132.135 88.5783 129.405C88.5744 129.387 88.5742 129.368 88.5776 129.349C88.581 129.331 88.5881 129.313 88.5983 129.298C88.6085 129.282 88.6218 129.268 88.6373 129.258C88.6527 129.247 88.6702 129.239 88.6885 129.236C88.7069 129.232 88.7259 129.231 88.7443 129.235C88.7628 129.238 88.7804 129.245 88.7962 129.256C88.8119 129.266 88.8255 129.279 88.8361 129.294C88.8467 129.31 88.8542 129.327 88.8581 129.346Z" fill="#263238"/>
<path d="M109.415 164.796C109.644 165.237 109.627 164.864 109.576 164.592C109.525 164.321 108.991 162.049 108.491 160.607C108.44 160.463 108.22 160.209 108.304 160.726C108.602 162.101 108.973 163.46 109.415 164.796Z" fill="#263238"/>
</svg>
